<svg xmlns="http://www.w3.org/2000/svg" viewBox="0 0 526.76 518.44"><defs><style>.cls-1{opacity:0.4;}.cls-2,.cls-3{fill:none;stroke:#1e1420;stroke-miterlimit:10;stroke-width:5px;}.cls-3{stroke-dasharray:12.28 12.28;}.cls-4{fill:#99b09a;}.cls-5{fill:#7a9bae;}.cls-6{fill:#fefefe;}.cls-7{fill:#fdfdfd;}</style></defs><title>illustration</title><g id="Layer_2" data-name="Layer 2"><g id="Layer_1-2" data-name="Layer 1"><g class="cls-1"><line class="cls-2" x1="115.55" y1="405.62" x2="119.79" y2="401.38"/><line class="cls-3" x1="128.47" y1="392.7" x2="401.96" y2="119.2"/><line class="cls-2" x1="406.3" y1="114.86" x2="410.55" y2="110.62"/></g><path class="cls-4" d="M0,223.58c1.14-2.48,3.18-4,5.41-5.49,15.37-10,32.31-16.18,50.05-20.36,25-5.9,50.37-7.4,75.95-6a247.15,247.15,0,0,1,60.81,10.54,156.05,156.05,0,0,1,33.86,15c2.68,1.62,5.06,3.46,6.44,6.36v3.63a5.74,5.74,0,0,1-5,5H5a5.73,5.73,0,0,1-5-5Z"/><path class="cls-4" d="M0,94.75c1.8-3.91,4.86-5.2,9.1-5,13.56.61,25.56,4.5,34.32,15.56,5.35,6.76,8.31,14.64,10.6,22.82,2.82,10,4.41,20.34,7.28,30.35,2.32,8.13,5.43,15.84,12.12,21.9l-12.33,2.28a178.22,178.22,0,0,0-23.89,6.06c-1.88.62-2.82.14-3.93-1.31-5.46-7.06-7.68-15.27-8.75-23.92s-1.35-17.62-3.05-26.32C19,124.36,13,113.39,4.25,103.82A24.63,24.63,0,0,1,0,98.38Z"/><path class="cls-4" d="M232.52,134.67c-1.1,3.33-2.09,6.7-3.32,10-4.7,12.55-13.17,21.82-24.94,28.13-5.31,2.85-10.66,5.63-16,8.43a4.66,4.66,0,0,1-1,.24,127.58,127.58,0,0,0,5-16.09,4.11,4.11,0,0,1,2.45-2.92c6.46-3.25,12.43-7.15,16.73-13.16,3.61-5,5.72-10.73,7.29-16.66,1.12-4.25,3.14-6.28,6.44-6.55s5.63,1.48,7.33,5.42Z"/><path class="cls-4" d="M113.87,163.18c2.67-9.58,6.31-18.86,8.92-28.47a99.27,99.27,0,0,0,2.26-44.19,6.94,6.94,0,0,1,5.63-8.41c3.86-.6,7.1,2.16,7.87,6.38,4,22.05.33,43.24-7,64.07-2.76,7.89-5.61,15.79-6.62,24.16-.17,1.41-1,1-1.76,1-6.13,0-12.26-.07-18.39,0a230.94,230.94,0,0,0-26,2c-1.57.2-2-.24-2.56-1.57-8.91-22.63-9.77-45.67-3.81-69.13,3-11.91,6.86-23.59,9.84-35.51,5.44-21.74,2.44-42.2-8.66-61.58a11.48,11.48,0,0,1-1.87-4.33C71.18,2.8,75.22-.78,80.23.15c19.69,3.62,31.94,15.33,37.4,34.37,3.2,11.16,3.7,22.62,3.38,34.13-.5,17.63-3,35.07-5,52.54-1.63,13.81-3.29,27.62-2.81,41.58C113.37,163,113.21,163.78,113.87,163.18Z"/><path class="cls-4" d="M128.71,177.67a119.85,119.85,0,0,0,9.57-18.82c5.58-14,8.79-28.51,10.67-43.37,2.92-23,3.12-46.11,2.34-69.24a20,20,0,0,1,.11-4.52,6.38,6.38,0,0,1,4.8-5.19,6.52,6.52,0,0,1,7,2.07A66.84,66.84,0,0,1,174.94,57c5.4,12.11,8.24,24.87,9.5,38a188.49,188.49,0,0,1-9.58,80.75c-.69,2-1.54,3.93-2.22,5.93-.32.93-.68,1.32-1.77,1.1a297.11,297.11,0,0,0-41.4-4.91A4.3,4.3,0,0,1,128.71,177.67Z"/><path class="cls-5" d="M526.71,334.84v183a4.82,4.82,0,0,1-2.44.21H297.92c-3.16,0-2.81.27-2.81-2.75V338.92c0-4.82,0-4.82,4.95-4.82h45.86q88.11,0,176.21,0C523.68,334.12,525.32,333.75,526.71,334.84Z"/><path class="cls-5" d="M295.33,286.49q114.68,0,229.35-.05c1.69,0,2.09.38,2.08,2.08-.09,12.13,0,24.25,0,36.38a3.35,3.35,0,0,1-2.32.72c-.9,0-1.8,0-2.71,0H300.48c-5.37,0-5.37,0-5.37-5.31q0-15.7,0-31.4A4.82,4.82,0,0,1,295.33,286.49Z"/><path class="cls-6" d="M295.33,286.49c0,12.19,0,24.39,0,36.58,0,1.58.38,2,2,2q114-.06,228.11,0c.45,0,.89-.07,1.34-.1v9.94c-.82,0-1.65-.1-2.47-.1q-113.19,0-226.37-.05c-1.95,0-2.6.33-2.6,2.49q.11,89.13,0,178.25c0,2.14.63,2.49,2.59,2.49q114.42-.07,228.85,0c-.4.94-1.22.42-1.8.42-9.42,0-18.83,0-28.25,0q-99.87,0-199.75,0c-1.7,0-2.08-.39-2.08-2.08q.07-113.89.07-227.78C294.9,287.86,294.38,287,295.33,286.49Z"/><path class="cls-6" d="M391.14,476.22c-2.87-1.2-5.61-2.24-8.25-3.5-.82-.4.06-1.23.27-1.75,4.57-11.25,9.2-22.49,13.8-33.73q14-34.26,28-68.53c.7-1.73,1.34-2.19,3-1.29a29.27,29.27,0,0,0,4.78,2c1.61.52,2,1.15,1.27,2.86q-11.7,28.27-23.23,56.61-9.33,22.8-18.67,45.59C391.86,475.08,391.75,475.84,391.14,476.22Z"/><path class="cls-6" d="M375.63,446.38a1.61,1.61,0,0,1-.73,1.55c-1.42,1.46-2.95,2.81-4.27,4.34-1.12,1.29-1.81,1.38-3.09.07-6.31-6.46-12.74-12.8-19.12-19.19-5.11-5.11-10.19-10.25-15.35-15.3-1-1-1-1.47,0-2.45q17.46-17.34,34.8-34.8c1.05-1.07,1.57-.87,2.43.09a51.43,51.43,0,0,0,4.31,4.3c1.13,1,1,1.58,0,2.6-9.19,9.11-18.29,18.32-27.51,27.4-1.35,1.33-1.3,2,0,3.29,9.16,9,18.22,18.17,27.33,27.26A7.18,7.18,0,0,0,375.63,446.38Z"/><path class="cls-6" d="M490.08,416.62c-.34.37-.62.71-.93,1q-17.55,17.56-35.1,35.15c-.83.83-1.31.88-2.11,0a54.67,54.67,0,0,0-4.64-4.62c-1.15-1-.82-1.54.09-2.44,9.08-9,18.08-18.11,27.19-27.09,1.52-1.49,1.82-2.26.09-3.94-9.09-8.89-18-18-27.05-26.91-1.11-1.1-1.49-1.76-.07-2.92A44.81,44.81,0,0,0,452,380.4c.76-.83,1.2-.75,2,0q17.61,17.68,35.27,35.31C489.5,416,489.74,416.25,490.08,416.62Z"/><path class="cls-6" d="M377.39,310.54q-27.88,0-55.76,0c-1.68,0-2.46-.29-2.28-2.18a39.52,39.52,0,0,0,0-5.86c-.07-1.32.41-1.78,1.66-1.59a5.14,5.14,0,0,0,.68,0q55.55,0,111.08,0c1.81,0,2.55.31,2.35,2.28a33.07,33.07,0,0,0,0,5.63c.09,1.39-.31,1.78-1.73,1.76-6.24-.08-12.49,0-18.73,0Z"/><path class="cls-7" d="M483.51,310.54c-5,0-5,0-5-5,0-4.63,0-4.63,4.67-4.63,5.05,0,5.05,0,5.05,4.94C488.19,310.54,488.19,310.54,483.51,310.54Z"/><path class="cls-6" d="M464.11,300.94c4.76,0,4.76,0,4.76,4.72,0,4.88,0,4.88-4.83,4.88s-4.78,0-4.78-4.73S459.26,300.94,464.11,300.94Z"/><path class="cls-6" d="M502.52,310.54c-4.73,0-4.73,0-4.73-4.75s0-4.85,4.85-4.85,4.75,0,4.75,4.74S507.39,310.54,502.52,310.54Z"/></g></g></svg>